<svg xmlns="http://www.w3.org/2000/svg" version="1.1" xmlns:xlink="http://www.w3.org/1999/xlink" width="1000" height="1000"><g clip-path="url(#SvgjsClipPath1268)"><rect width="1000" height="1000" fill="#3c2f2f"></rect><g transform="matrix(41.46503086014189,0,0,41.46503086014189,5.684341886080802e-14,1.4970327416592113)"><svg xmlns="http://www.w3.org/2000/svg" version="1.1" xmlns:xlink="http://www.w3.org/1999/xlink" width="24.116707" height="24.0445"><svg width="24.116707" height="24.0445" viewBox="0 0 24.116707 24.0445" version="1.1" id="svg1" sodipodi:docname="favicon.svg" inkscape:version="1.4.2 (ebf0e940, 2025-05-08)" xmlns:inkscape="http://www.inkscape.org/namespaces/inkscape" xmlns:sodipodi="http://sodipodi.sourceforge.net/DTD/sodipodi-0.dtd" xmlns="http://www.w3.org/2000/svg" xmlns:svg="http://www.w3.org/2000/svg">
  <defs id="defs1"><clipPath id="SvgjsClipPath1268"><rect width="1000" height="1000" x="0" y="0" rx="350" ry="350"></rect></clipPath></defs>
  <sodipodi:namedview id="namedview1" pagecolor="#ffffff" bordercolor="#000000" borderopacity="0.25" inkscape:showpageshadow="2" inkscape:pageopacity="0.0" inkscape:pagecheckerboard="0" inkscape:deskcolor="#d1d1d1" inkscape:zoom="13.84932" inkscape:cx="16.968342" inkscape:cy="12.166662" inkscape:window-width="1440" inkscape:window-height="766" inkscape:window-x="0" inkscape:window-y="25" inkscape:window-maximized="1" inkscape:current-layer="svg1"></sodipodi:namedview>
  <rect style="fill:#3c2f2f;fill-opacity:1;stroke:none;stroke-width:0.954215" id="rect1" width="24.116707" height="24.0445" x="0" y="0"></rect>
  <path fill-opacity="0.1" d="m 11.453291,10.044492 c 0,3.553048 -2.689839,7.269892 -6.9112001,8.103382 L 3.8620288,16.678553 c 1.5308309,-0.577085 2.8771327,-2.586171 3.0271057,-3.971176 -1.72158,-0.270919 -3.0381636,-1.760283 -3.0381636,-3.5585763 0,-2.199144 1.7858541,-3.4410867 3.593133,-3.4410867 2.0837271,0 4.0091871,1.5930317 4.0091871,4.336778 z m 8.984561,0 c 0,3.553048 -2.68984,7.269892 -6.911201,8.103382 l -0.680062,-1.469321 c 1.530831,-0.577085 2.877133,-2.586171 3.027106,-3.971176 -1.72158,-0.270919 -3.038164,-1.760283 -3.038164,-3.5585763 0,-2.199144 1.785854,-3.4410867 3.593133,-3.4410867 2.083727,0 4.009188,1.5930317 4.009188,4.336778 z" id="path1" sodipodi:nodetypes="scccsssscccsss" inkscape:label="path1" style="fill:#fff4e6;fill-opacity:1;stroke-width:0.69112"></path>
</svg></svg></g></g></svg>